# xmcd CD database file
#
# Track frame offsets:
#	225
#	16307
#	32147
#	56667
#	73577
#	88475
#	108045
#	127740
#	155550
#	172205
#
# Disc length: 2475 seconds
#
# Revision: 2
# Processed by: cddbd v1.5.1PL0 Copyright (c) Steve Scherf et al.
# Submitted via: CDex 1.51
#
DISCID=8409a80a
DTITLE=McDowell, Mississippi Fred - Steakbone Slide Guitar
DYEAR=1996
DGENRE=Blues
TTITLE0=Good Morning Little Schoolgirl
TTITLE1=Big Fat Mama
TTITLE2=The Train I Ride
TTITLE3=Get Right Church
TTITLE4=You Ain't Gonna Worry My Life Anymore (aka Fred's Worried Life Blues)
TTITLE5=What's The Matter With Papa's Little Angel Child?  (aka I Heard Somebody Call)
TTITLE6=Unknown Blues
TTITLE7=Levee Camp Blues
TTITLE8=Keep Your Lamp Trimmed And Burning
TTITLE9=You Got To Move
EXTD=YEAR: 1996
EXTT0=
EXTT1=
EXTT2=
EXTT3=
EXTT4=
EXTT5=
EXTT6=
EXTT7=
EXTT8=
EXTT9=
PLAYORDER=
